# File created by Blade
# Date/Time:  Wed Jan 28 16:58:26 2015
#---------------------------------------------------------
:version 1.10
:name HOM
:units
  mass 1.0
  length 1.000000
  angle deg
:documentation
     Acclaim Skeleton File
:root
   axis xyz
   order TX TY TZ RX RY RZ
   position 0.000000 0.000000 0.000000
   orientation 0 0 0
:bonedata
   begin
      id 1
      name Spine_dum
      direction 0.000000 1.000000 0.000000
      length 9.621153
      axis 0.0 0.0 0.0 xyz
   end
   begin
      id 2
      name LeftUpLeg_dum
      direction 1.000000 0.000000 0.000000
      length 2.700595
      axis 0.0 0.0 0.0 xyz
   end
   begin
      id 3
      name RightUpLeg_dum
      direction -1.000000 0.000000 0.000000
      length 2.700595
      axis 0.0 0.0 0.0 xyz
   end
   begin
      id 4
      name Spine
      direction 0.000000 1.000000 0.000000
      length 0.000000
      axis 0.0 0.0 0.0 xyz
      dof rx ry rz
   end
   begin
      id 5
      name Spine_dum1
      direction 0.000000 1.000000 0.000000
      length 12.771951
      axis 0.0 0.0 0.0 xyz
   end
   begin
      id 6
      name Spine_dum2
      direction 0.000000 1.000000 0.000000
      length 7.400569
      axis 0.0 0.0 0.0 xyz
   end
   begin
      id 7
      name Spine_dum3
      direction 0.000000 1.000000 0.000000
      length 7.400569
      axis 0.0 0.0 0.0 xyz
   end
   begin
      id 8
      name Head
      direction 0.000000 1.000000 0.000000
      length 4.527550
      axis 0.0 0.0 0.0 xyz
      dof rx ry rz
   end
   begin
      id 9
      name LeftShoulder
      direction 1.000000 0.000000 0.000000
      length 8.349299
      axis 0.0 0.0 -90.0 xyz
      dof rx ry rz
   end
   begin
      id 10
      name LeftArm
      direction 1.000000 0.000000 0.000000
      length 11.334839
      axis 0.0 0.0 -90.0 xyz
      dof rx ry rz
   end
   begin
      id 11
      name LeftForeArm
      direction 1.000000 0.000000 0.000000
      length 9.694182
      axis 0.0 0.0 -90.0 xyz
      dof ry rz rx
   end
   begin
      id 12
      name LeftHand
      direction 0.000000 0.000000 0.000000
      length 0.000000
      axis 0.0 0.0 -90.0 xyz
      dof rx ry rz
   end
   begin
      id 13
      name LeftHand_dum1
      direction 0.000000 0.000000 0.000000
      length 0.000000
      axis 0.0 0.0 -90.0 xyz
   end
   begin
      id 14
      name LeftHand_dum2
      direction 1.000000 0.000000 0.000000
      length 3.937000
      axis 0.0 0.0 -90.0 xyz
   end
   begin
      id 15
      name LeftHandThumb1
      direction 0.000000 0.000000 1.000000
      length 3.937000
      axis 0.0 0.0 -90.0 xyz
      dof rx rz ry
   end
   begin
      id 16
      name RightShoulder
      direction -1.000000 0.000000 0.000000
      length 8.349299
      axis 0.0 0.0 90.0 xyz
      dof rx ry rz
   end
   begin
      id 17
      name RightArm
      direction -1.000000 0.000000 0.000000
      length 11.334839
      axis 0.0 0.0 90.0 xyz
      dof rx ry rz
   end
   begin
      id 18
      name RightForeArm
      direction -1.000000 0.000000 0.000000
      length 9.694182
      axis 0.0 0.0 90.0 xyz
      dof ry rz rx
   end
   begin
      id 19
      name RightHand
      direction 0.000000 0.000000 0.000000
      length 0.000000
      axis 0.0 0.0 90.0 xyz
      dof rx ry rz
   end
   begin
      id 20
      name RightHand_dum1
      direction 0.000000 0.000000 0.000000
      length 0.000000
      axis 0.0 0.0 90.0 xyz
   end
   begin
      id 21
      name RightHand_dum2
      direction -1.000000 0.000000 0.000000
      length 3.937000
      axis 0.0 0.0 90.0 xyz
   end
   begin
      id 22
      name RightHandThumb1
      direction 0.000000 0.000000 1.000000
      length 3.937000
      axis 0.0 0.0 90.0 xyz
      dof rx rz ry
   end
   begin
      id 23
      name LeftUpLeg
      direction 0.000000 -1.000000 0.000000
      length 16.757176
      axis 0.0 0.0 0.0 xyz
      dof rx ry rz
   end
   begin
      id 24
      name LeftLeg
      direction 0.000000 -1.000000 0.000000
      length 16.759153
      axis 0.0 0.0 0.0 xyz
      dof rx ry rz
   end
   begin
      id 25
      name LeftFoot
      direction 0.000000 -0.258819 0.965926
      length 5.841289
      axis 15.0 0.0 0.0 xyz
      dof rx ry rz
   end
   begin
      id 26
      name LeftToeBase
      direction 0.000000 0.000000 1.000000
      length 2.952750
      axis 0.0 0.0 0.0 xyz
      dof rx ry rz
   end
   begin
      id 27
      name RightUpLeg
      direction 0.000000 -1.000000 0.000000
      length 16.757176
      axis 0.0 0.0 0.0 xyz
      dof rx ry rz
   end
   begin
      id 28
      name RightLeg
      direction 0.000000 -1.000000 0.000000
      length 16.759153
      axis 0.0 0.0 0.0 xyz
      dof rx ry rz
   end
   begin
      id 29
      name RightFoot
      direction 0.000000 -0.258819 0.965926
      length 5.841289
      axis 15.0 0.0 0.0 xyz
      dof rx ry rz
   end
   begin
      id 30
      name RightToeBase
      direction 0.000000 0.000000 1.000000
      length 2.952750
      axis 0.0 0.0 0.0 xyz
      dof rx ry rz
   end
:hierarchy
   begin
      root Spine_dum LeftUpLeg_dum RightUpLeg_dum
      Spine_dum Spine
      LeftUpLeg_dum LeftUpLeg
      RightUpLeg_dum RightUpLeg
      Spine Spine_dum1 Spine_dum2 Spine_dum3
      Spine_dum1 Head
      Spine_dum2 LeftShoulder
      Spine_dum3 RightShoulder
      LeftShoulder LeftArm
      LeftArm LeftForeArm
      LeftForeArm LeftHand
      LeftHand LeftHand_dum1 LeftHand_dum2
      LeftHand_dum1 LeftHandThumb1
      RightShoulder RightArm
      RightArm RightForeArm
      RightForeArm RightHand
      RightHand RightHand_dum1 RightHand_dum2
      RightHand_dum1 RightHandThumb1
      LeftUpLeg LeftLeg
      LeftLeg LeftFoot
      LeftFoot LeftToeBase
      RightUpLeg RightLeg
      RightLeg RightFoot
      RightFoot RightToeBase
   end

# File created by Blade
# Date/Time:  Wed Jan 28 16:58:32 2015
# Frame Rate: 120.000 fps
#------------------------------------------------------
:FULLY-SPECIFIED
:DEGREES
1074
root 10.555241 36.670274 -13.053176 206.896646 27.526197 -150.161808
Spine 21.732925 -0.331563 0.358915
Head 34.827141 2.559988 43.619549
LeftShoulder -11.614111 3.851671 28.844561
LeftArm 28.244350 -55.385046 -72.243530
LeftForeArm -10.486867 -0.000000 110.927614
LeftHand -16.772781 -0.000000 26.236163
LeftHandThumb1 -26.253704 0.000000 33.147579
RightShoulder -23.276133 -9.605433 2.550704
RightArm 12.402557 -23.944474 71.081299
RightForeArm -10.461861 -0.000000 32.435701
RightHand -15.991399 0.000000 -8.103919
RightHandThumb1 -24.326973 -0.000000 -32.862282
LeftUpLeg -24.970543 38.512611 8.039062
LeftLeg 11.589107 -0.000000 -0.000000
LeftFoot -19.167815 22.860575 -13.630296
LeftToeBase 16.160751 -0.000000 -0.000000
RightUpLeg -19.284826 -0.466569 18.554000
RightLeg 113.625984 -0.000000 -0.000000
RightFoot -6.427591 -16.540577 14.368200
RightToeBase 0.664415 -0.000000 -0.000000
1075
root 10.532229 36.674504 -13.043196 207.018134 27.656923 -150.115593
Spine 21.725835 -0.301528 0.340003
Head 34.723268 2.400164 43.747552
LeftShoulder -11.668698 4.014650 28.799759
LeftArm 28.265590 -55.654907 -72.242055
LeftForeArm -10.667457 0.000000 110.846976
LeftHand -16.770095 -0.000000 26.600200
LeftHandThumb1 -26.253704 0.000000 33.147579
RightShoulder -23.272303 -9.509105 2.497445
RightArm 12.305930 -23.842841 71.323321
RightForeArm -10.623956 -0.000000 32.459294
RightHand -15.959105 -0.000000 -7.921238
RightHandThumb1 -24.326973 -0.000000 -32.862282
LeftUpLeg -25.059700 38.805657 7.874160
LeftLeg 11.470264 -0.000000 -0.000000
LeftFoot -19.241242 22.585956 -13.809106
LeftToeBase 16.428068 -0.000000 -0.000000
RightUpLeg -19.437812 -1.352551 18.210754
RightLeg 114.091561 -0.000000 -0.000000
RightFoot -6.219454 -15.825453 14.523932
RightToeBase 0.375077 -0.000000 -0.000000
1076
root 10.500357 36.671884 -13.043684 207.084200 27.854380 -150.174613
Spine 21.710288 -0.272090 0.153823
Head 34.665691 2.255467 43.912864
LeftShoulder -11.743604 4.170519 28.800876
LeftArm 28.242051 -55.938866 -72.209092
LeftForeArm -10.977186 0.000000 110.745162
LeftHand -16.699567 -0.000000 27.231729
LeftHandThumb1 -26.253704 0.000000 33.147579
RightShoulder -23.248847 -9.447152 2.500099
RightArm 12.232291 -23.770974 71.521393
RightForeArm -10.727118 -0.000000 32.516641
RightHand -15.955163 -0.000000 -7.714380
RightHandThumb1 -24.326973 -0.000000 -32.862282
LeftUpLeg -25.082861 39.082951 7.582312
LeftLeg 11.260769 -0.000000 -0.000000
LeftFoot -19.236861 22.379264 -13.837363
LeftToeBase 16.772219 -0.000000 -0.000000
RightUpLeg -19.601016 -2.414755 17.492052
RightLeg 114.618471 -0.000000 -0.000000
RightFoot -5.775038 -14.989117 14.626298
RightToeBase -0.210239 -0.000000 0.000000
1077
root 10.472716 36.669209 -13.041070 207.174806 28.028272 -150.203711
Spine 21.677435 -0.260734 0.000800
Head 34.631197 2.180357 44.041097
LeftShoulder -11.848244 4.314411 28.801290
LeftArm 28.200939 -56.179415 -72.161613
LeftForeArm -10.962091 -0.000000 110.633067
LeftHand -16.654610 0.000000 27.022703
LeftHandThumb1 -26.253704 0.000000 33.147579
RightShoulder -23.222067 -9.410702 2.477261
RightArm 12.178593 -23.811260 71.690112
RightForeArm -10.507687 -0.000000 32.575999
RightHand -15.936762 -0.000000 -7.732256
RightHandThumb1 -24.326973 -0.000000 -32.862282
LeftUpLeg -25.170026 39.428948 7.286156
LeftLeg 11.096656 -0.000000 -0.000000
LeftFoot -19.220705 22.163490 -13.789348
LeftToeBase 16.967142 -0.000000 -0.000000
RightUpLeg -19.709665 -3.477546 16.775527
RightLeg 115.108956 -0.000000 -0.000000
RightFoot -5.417088 -14.193029 14.894626
RightToeBase -0.555245 -0.000000 0.000000
1078
root 10.435218 36.661074 -13.046586 207.222198 28.220805 -150.319976
Spine 21.626077 -0.208219 -0.199643
Head 34.598748 2.031224 44.143233
LeftShoulder -11.882199 4.378972 28.810485
LeftArm 28.073474 -56.401773 -72.045279
LeftForeArm -11.070533 -0.000000 110.526615
LeftHand -16.608849 -0.000000 27.219870
LeftHandThumb1 -26.253704 0.000000 33.147579
RightShoulder -23.245436 -9.394518 2.453694
RightArm 12.120891 -23.832022 71.875327
RightForeArm -10.365114 0.000000 32.607803
RightHand -15.927520 -0.000000 -7.758993
RightHandThumb1 -24.326973 -0.000000 -32.862282
LeftUpLeg -25.233664 39.735093 6.892695
LeftLeg 10.892353 -0.000000 -0.000000
LeftFoot -19.300371 21.876595 -13.983984
LeftToeBase 17.099206 -0.000000 -0.000000
RightUpLeg -19.757151 -4.577315 15.732549
RightLeg 115.614142 -0.000000 -0.000000
RightFoot -4.912290 -12.993849 15.190441
RightToeBase -1.104604 -0.000000 0.000000
1079
root 10.406019 36.655000 -13.049157 207.293297 28.325796 -150.367823
Spine 21.570253 -0.207701 -0.263905
Head 34.568622 1.850691 44.147645
LeftShoulder -11.919075 4.463899 28.795638
LeftArm 28.037137 -56.610922 -72.044742
LeftForeArm -11.040022 0.000000 110.375591
LeftHand -16.494327 -0.000000 27.219071
LeftHandThumb1 -26.253704 0.000000 33.147579
RightShoulder -23.284330 -9.418135 2.377058
RightArm 12.108967 -23.994284 72.020393
RightForeArm -10.052595 -0.000000 32.604533
RightHand -15.826551 -0.000000 -8.033001
RightHandThumb1 -24.326973 -0.000000 -32.862282
LeftUpLeg -25.361557 40.056103 6.563117
LeftLeg 10.744243 -0.000000 -0.000000
LeftFoot -19.290814 21.689323 -13.764719
LeftToeBase 17.395772 -0.000000 -0.000000
RightUpLeg -19.746311 -5.784703 14.845186
RightLeg 116.075298 -0.000000 -0.000000
RightFoot -4.419500 -12.259912 15.287772
RightToeBase -1.007254 -0.000000 0.000000
